<svg height="32" viewbox="0 0 28 32" width="28" xmlns="http://www.w3.org/2000/svg">
    <path d="M26.5 5.00006H22.75V3.6425C23.4774 3.3845 24 2.68981 24 1.875C24 0.841125 23.1589 0 22.125 0H5.875C4.84113 0 4 0.841125 4 1.87506C4 2.68981 4.52256 3.3845 5.25 3.6425V5.00006H1.5C1.15481 5.00006 0.875 5.27994 0.875 5.62506V10.0001C0.875 12.7571 3.118 15.0001 5.875 15.0001H6.40344C6.52356 15.2094 6.65194 15.4151 6.79012 15.6156C7.67481 16.8997 8.8688 17.9151 10.2633 18.5776C10.2548 18.6496 10.25 18.7228 10.25 18.797C10.25 19.6727 10.8536 20.4099 11.6664 20.6151C10.9154 23.1173 9.5809 25.75 8 25.75H6.5C6.18481 25.75 5.91894 25.9847 5.87981 26.2975L5.25481 31.2975C5.23256 31.4754 5.28781 31.6543 5.40644 31.7886C5.52506 31.923 5.69575 32 5.875 32H22.125C22.3043 32 22.4749 31.9231 22.5936 31.7886C22.7122 31.6543 22.7674 31.4753 22.7452 31.2975L22.1202 26.2975C22.0811 25.9847 21.8153 25.75 21.5 25.75H20C19.0432 25.75 18.2348 24.7453 17.7251 23.9024C17.0701 22.8193 16.6126 21.5434 16.3337 20.6149C17.1466 20.4098 17.75 19.6726 17.75 18.7969C17.75 18.7227 17.7452 18.6496 17.7367 18.5776C19.1314 17.9149 20.3256 16.8994 21.2103 15.615C21.3483 15.4146 21.4766 15.2093 21.5966 15.0001H22.125C24.882 15.0001 27.125 12.7571 27.125 10.0001V5.62506C27.125 5.27994 26.8452 5.00006 26.5 5.00006ZM2.125 10.0001V6.25006H5.25V10.6719C5.25 11.7332 5.4425 12.7716 5.81231 13.7485C3.77344 13.7148 2.125 12.0468 2.125 10.0001ZM21.417 30.75H6.583L7.05175 27H20.9482L21.417 30.75ZM17.5361 25.75H10.4639C10.7676 25.4171 11.0605 25.0184 11.3418 24.5539C12.1406 23.2346 12.6651 21.6801 12.9519 20.6719H15.0482C15.3352 21.6812 15.8586 23.2317 16.6554 24.5492C16.9376 25.0157 17.2314 25.416 17.5361 25.75ZM15.875 19.4219H12.125C11.7804 19.4219 11.5 19.1416 11.5 18.7969C11.5 18.4523 11.7804 18.1719 12.125 18.1719H15.875C16.2196 18.1719 16.5 18.4523 16.5 18.7969C16.5 19.1416 16.2196 19.4219 15.875 19.4219ZM17.1842 17.4565C16.8461 17.1261 16.384 16.9219 15.875 16.9219H12.125C11.616 16.9219 11.154 17.1261 10.8158 17.4565C8.1807 16.2157 6.5 13.5976 6.5 10.6719V3.75H11.1873C11.5325 3.75 11.8123 3.47012 11.8123 3.125C11.8123 2.77988 11.5325 2.5 11.1873 2.5H5.875C5.53038 2.5 5.25 2.21962 5.25 1.875C5.25 1.53038 5.53038 1.25 5.875 1.25H22.125C22.4696 1.25 22.75 1.53038 22.75 1.87506C22.75 2.21969 22.4696 2.5 22.125 2.5H16.8123C16.4671 2.5 16.1873 2.77988 16.1873 3.125C16.1873 3.47012 16.4671 3.75 16.8123 3.75H21.5V10.6719C21.5 13.5974 19.8192 16.2157 17.1842 17.4565ZM25.875 10.0001C25.875 12.0468 24.2266 13.7148 22.1877 13.7485C22.5575 12.7716 22.75 11.7332 22.75 10.6719V6.25006H25.875V10.0001Z"                                             fill="#9F9B8D"></path>
</svg>